Coordinates
version=1
nRows=29
nColumns=24
inDegrees=yes

Units are S.I. units (second, meters, Newtons, ...)
Angles are in degrees.

endheader
time	pelvis_tilt	pelvis_list	pelvis_rotation	pelvis_tx	pelvis_ty	pelvis_tz	hip_flexion_r	hip_adduction_r	hip_rotation_r	knee_angle_r	ankle_angle_r	subtalar_angle_r	mtp_angle_r	hip_flexion_l	hip_adduction_l	hip_rotation_l	knee_angle_l	ankle_angle_l	subtalar_angle_l	mtp_angle_l	lumbar_extension	lumbar_bending	lumbar_rotation
      1.14150000	      0.94239308	      3.27898277	     -1.09292540	     -0.06432646	      0.97975597	      0.34118142	    -20.78581630	     -1.36695530	     -4.40151760	     -2.56717121	     19.61080910	      2.70464838	     -3.23760961	     20.52338423	      4.30862983	      0.35268989	      4.08042905	     -4.80750276	     -9.03143691	     -1.50630409	    -14.44714745	      1.47749752	      7.49494623
      1.14566667	      0.95334259	      3.45903220	     -1.08457886	     -0.05840264	      0.97904546	      0.34066334	    -20.88948797	     -1.62928944	     -4.69121583	     -3.16549380	     19.83831564	      3.14468639	     -3.09697259	     20.53162848	      4.59563187	      0.56338546	      3.87177178	     -5.04321082	     -9.19904885	     -1.41961176	    -14.42731307	      1.24008605	      7.52810513
      1.14983333	      1.01138179	      3.67930268	     -1.07928351	     -0.05244247	      0.97844162	      0.34014793	    -21.04108135	     -1.93576432	     -4.97770903	     -3.77305541	     20.02620919	      3.55614378	     -2.95127076	     20.49636736	      4.92490617	      0.76233592	      3.58440539	     -5.34169294	     -9.40836878	     -1.33051454	    -14.45995278	      0.96342810	      7.54297700
      1.15400000	      1.03982174	      3.89819444	     -1.06619941	     -0.04646431	      0.97783678	      0.33960363	    -21.13410122	     -2.24283380	     -5.26985083	     -4.43972301	     20.20863685	      3.97058468	     -2.77969561	     20.51191257	      5.25545385	      0.97888620	      3.19733941	     -5.69182451	     -9.69209953	     -1.22611031	    -14.44642596	      0.67953697	      7.55515634
      1.15816667	      1.07456756	      4.13912275	     -1.05127426	     -0.04046005	      0.97727872	      0.33904181	    -21.22161511	     -2.57524024	     -5.55474671	     -5.13522193	     20.36089164	      4.36086352	     -2.57634444	     20.53276823	      5.61011304	      1.19883967	      2.73281835	     -6.09413465	    -10.02710318	     -1.10329198	    -14.44675127	      0.37976492	      7.55656486
      1.16233333	      1.09505978	      4.38660632	     -1.03136961	     -0.03443386	      0.97674647	      0.33846244	    -21.28213550	     -2.91425017	     -5.81415242	     -5.85681073	     20.47234575	      4.69462409	     -2.36025691	     20.58783669	      5.97380823	      1.39660726	      2.18236041	     -6.54499156	    -10.40035722	     -0.97642941	    -14.42712494	      0.06388792	      7.54606913
      1.16650000	      1.10793255	      4.64934395	     -1.00660157	     -0.02838711	      0.97624123	      0.33787265	    -21.31964653	     -3.26895002	     -6.05966207	     -6.61249780	     20.55806169	      5.00428353	     -2.12629090	     20.66341066	      6.35406063	      1.59207135	      1.56670546	     -7.03595747	    -10.82024165	     -0.84667692	    -14.39074131	     -0.26681807	      7.52929264
      1.17066667	      1.11857187	      4.91277702	     -0.98058221	     -0.02232526	      0.97576831	      0.33726933	    -21.33809678	     -3.62607623	     -6.29747070	     -7.40270182	     20.59944294	      5.27822354	     -1.85700752	     20.75772346	      6.73623473	      1.78551684	      0.88061549	     -7.55738923	    -11.29317747	     -0.70699351	    -14.35636084	     -0.59954704	      7.50504294
      1.17483333	      1.11765389	      5.18350280	     -0.94744783	     -0.01624645	      0.97532550	      0.33665066	    -21.33139709	     -3.98857497	     -6.50502333	     -8.21941123	     20.59533434	      5.49855276	     -1.56030574	     20.87796102	      7.12758577	      1.95999672	      0.13697167	     -8.09776900	    -11.79135891	     -0.56680918	    -14.30599595	     -0.93657937	      7.47103975
      1.17900000	      1.10736889	      5.45432451	     -0.90854690	     -0.01016012	      0.97490794	      0.33601800	    -21.30048056	     -4.34852256	     -6.68298526	     -9.06539073	     20.53926207	      5.66257788	     -1.23816917	     21.02263947	      7.52043023	      2.12289476	     -0.66146167	     -8.64278537	    -12.31112543	     -0.43239570	    -14.24918062	     -1.27565830	      7.43044630
      1.18316667	      1.09310198	      5.72611103	     -0.86713510	     -0.00406195	      0.97452980	      0.33538002	    -21.24719034	     -4.70898429	     -6.83976134	     -9.94576893	     20.43416169	      5.78671337	     -0.86901125	     21.18064198	      7.91432102	      2.27614688	     -1.50175086	     -9.18425050	    -12.86029891	     -0.29971175	    -14.18300471	     -1.61765205	      7.38454738
      1.18733333	      1.07323314	      5.99448901	     -0.82187660	      0.00204224	      0.97418862	      0.33473008	    -21.17245649	     -5.06332965	     -6.96585158	    -10.85336102	     20.26777824	      5.84151832	     -0.46262398	     21.35621069	      8.30525799	      2.41364768	     -2.38547500	     -9.70381868	    -13.41224061	     -0.17815194	    -14.11266459	     -1.95355717	      7.33155082
      1.19150000	      1.08717383	      6.25947975	     -0.75947760	      0.00817827	      0.97394265	      0.33408082	    -21.15463938	     -5.39687698	     -7.04520634	    -11.69926101	     19.86300059	      5.68604571	      5.62246658	     21.49848075	      8.69772252	      2.55612878	     -3.29946557	    -10.18287002	    -13.97791349	      1.31815806	    -14.08348099	     -2.29226761	      7.24324179
      1.19566667	      1.04481115	      6.51430793	     -0.72001250	      0.01427397	      0.97366379	      0.33343940	    -21.00089237	     -5.73754301	     -7.09967826	    -12.70368751	     19.60949425	      5.65309503	      5.68184866	     21.72287162	      9.06694567	      2.61722442	     -4.26630444	    -10.58753675	    -14.42642138	      1.28641146	    -13.98913409	     -2.61831753	      7.20909706
      1.19983333	      1.01104344	      6.76429637	     -0.66888459	      0.02037942	      0.97344324	      0.33277944	    -20.84617403	     -6.06629371	     -7.13419890	    -13.72192734	     19.27336017	      5.57421744	      5.79905020	     21.92922602	      9.43784895	      2.72751599	     -5.23327773	    -10.96483222	    -14.95766781	      1.24434125	    -13.90461310	     -2.93891636	      7.14772266
      1.20400000	      1.00058964	      7.01467125	     -0.61716771	      0.02649561	      0.97329598	      0.33209742	    -20.69681345	     -6.39618934	     -7.16812596	    -14.76985345	     18.85593899	      5.49444589	      6.18113201	     22.09622358	      9.81712067	      2.89894330	     -6.19148938	    -11.27639908	    -15.58929663	      1.13430258	    -13.85217133	     -3.25804787	      7.09734963
      1.20816667	      0.94950875	      7.23868650	     -0.56765105	      0.03257985	      0.97315257	      0.33144659	    -20.46998910	     -6.69293836	     -7.12463881	    -15.86557020	     18.40028640	      5.29790244	      6.48980098	     22.33782819	     10.15710932	      2.94398770	     -7.21877468	    -11.52864210	    -16.02998005	      1.04556796	    -13.75107697	     -3.54402446	      7.02410130
      1.21233333	      0.91469737	      7.46313133	     -0.52637603	      0.03866359	      0.97307534	      0.33078995	    -20.22686943	     -6.99445407	     -7.07269580	    -17.01458227	     17.86365573	      5.08763253	      6.95486764	     22.54195223	     10.50013774	      3.03502900	     -8.21987740	    -11.70241938	    -16.51769100	      0.91392317	    -13.66992669	     -3.82832910	      6.96334467
      1.21650000	      0.87413503	      7.67510600	     -0.49220295	      0.04472548	      0.97303823	      0.33014146	    -19.93637801	     -7.28571138	     -6.99150761	    -18.22492325	     17.26118112	      4.83049658	      7.57935153	     22.74731249	     10.82712492	      3.10912335	     -9.22066055	    -11.79345800	    -16.95047671	      0.73688796	    -13.58339826	     -4.10177889	      6.90029132
      1.22066667	      0.92652307	      7.91759450	     -0.47319117	      0.05083103	      0.97319017	      0.32952201	    -19.73842200	     -7.60844868	     -6.92022659	    -19.42023828	     16.43658129	      4.41538195	     13.61602309	     22.80781512	     11.18583402	      3.21215575	    -10.14644149	    -11.74161665	    -17.28916183	     -0.96174273	    -13.60651860	     -4.43352234	      6.87998490
      1.22483333	      0.92252040	      8.13689159	     -0.45123495	      0.05687563	      0.97328239	      0.32887951	    -19.41057525	     -7.91657972	     -6.84556765	    -20.75147892	     15.73621130	      4.16595619	     13.67254034	     22.94933661	     11.51867588	      3.26820161	    -11.11822992	    -11.62978324	    -17.59584466	     -0.96588521	    -13.56145838	     -4.70611241	      6.74952961
      1.22900000	      0.91964382	      8.33491656	     -0.44221841	      0.06289188	      0.97342924	      0.32825866	    -19.04806281	     -8.20267379	     -6.71882766	    -22.11759560	     14.94229628	      3.85980002	     13.80927087	     23.07879066	     11.82799402	      3.32652154	    -12.07729484	    -11.46529989	    -17.91426901	     -0.99693008	    -13.52230342	     -4.95644046	      6.68158797
      1.23316667	      0.92582231	      8.51979123	     -0.44323494	      0.06887428	      0.97362622	      0.32765231	    -18.65358993	     -8.47840211	     -6.57074942	    -23.53571008	     14.07784781	      3.53880707	     14.08946790	     23.19088906	     12.12072449	      3.36378054	    -13.02742392	    -11.22064830	    -18.20595535	     -1.07411196	    -13.49973660	     -5.20011717	      6.62724910
      1.23733333	      0.95879018	      8.73571231	     -0.46037674	      0.07486650	      0.97390322	      0.32706117	    -18.24508240	     -8.79819855	     -6.44388640	    -25.01931775	     13.14541898	      3.19418830	     14.34357131	     23.22535254	     12.44238886	      3.42512859	    -13.87804736	    -10.92282414	    -18.43195999	     -1.14859634	    -13.49025558	     -5.47280195	      6.55004206
      1.24150000	      0.97941623	      8.91787250	     -0.48298057	      0.08079518	      0.97419142	      0.32649170	    -17.77885642	     -9.08263254	     -6.27963261	    -26.55162877	     12.15321465	      2.84802531	     14.66124272	     23.27745107	     12.72609469	      3.45920398	    -14.74445507	    -10.55035717	    -18.64057224	     -1.24684295	    -13.47694919	     -5.71302943	      6.48584083
      1.24566667	      1.06239811	      9.10420358	     -0.51777223	      0.08669209	      0.97458411	      0.32591598	    -17.35244518	     -9.38257921	     -6.13474451	    -28.09556149	     11.05044107	      2.47539581	     20.32473586	     23.25165991	     13.01634436	      3.47807482	    -15.59906302	    -10.02881124	    -18.77989435	     -3.12387381	    -13.55914148	     -5.94782324	      6.39825572
      1.24983333	      1.12705231	      9.30253963	     -0.56542578	      0.09257121	      0.97499895	      0.32537153	    -16.85921053	     -9.70067684	     -5.97798260	    -29.71118986	      9.93035946	      2.14529956	     20.35272791	     23.19529405	     13.31371075	      3.51852950	    -16.33693866	     -9.62964143	    -18.98805279	     -3.12309470	    -13.59728932	     -6.19711976	      6.33118528
      1.25400000	      1.21610846	      9.50309332	     -0.62580270	      0.09840212	      0.97547271	      0.32485625	    -16.36094295	    -10.02329764	     -5.79734890	    -31.35115056	      8.78121587	      1.84832478	     20.39201830	     23.09805679	     13.61116300	      3.55368486	    -17.04799120	     -9.15402765	    -19.16741296	     -3.13037539	    -13.68177926	     -6.46742947	      6.24084398
      1.25816667	      1.25322971	      9.67512079	     -0.69252669	      0.10417141	      0.97589214	      0.32436756	    -15.75175710	    -10.32095101	     -5.59160353	    -33.05773109	      7.59244417	      1.49299055	     20.46248341	     23.04197881	     13.86665978	      3.54647525	    -17.72508511	     -8.64362723	    -19.26545231	     -3.15487883	    -13.68725690	     -6.68697134	      6.16190715
